<?xml version="1.0" encoding="utf-8"?>
<!DOCTYPE svg PUBLIC "-//W3C//DTD SVG 1.1//EN" "http://www.w3.org/Graphics/SVG/1.1/DTD/svg11.dtd">
<svg version="1.1" xmlns="http://www.w3.org/2000/svg" xmlns:xlink="http://www.w3.org/1999/xlink" x="0px" y="0px"
	 viewBox="0 0 63.8 60" enable-background="new 0 0 63.8 60" xml:space="preserve" preserveAspectRatio="xMinYMid">
<path d="M0,60l26-45.7l19.6,31.7l-6.1,6.5l0.8,1.3L52,41l11.7,19H0z M26.1,18.5l-8.8,15.2l3.8-2.5l1.3,7.6l2.7-9.3l4.7,9.1l0.4-7.6
	l7,6.2L26.1,18.5z"/>
<path fill="#77BB00" d="M9.1,27.8c-0.9-0.9-1.7-1.9-2.5-3c-0.7-1-1.3-2.2-1.8-3.3c-0.5-1.1-0.8-2.3-1.1-3.5
	c-0.2-1.2-0.4-2.4-0.4-3.7c0-1.2,0.1-2.5,0.4-3.7c0.2-1.2,0.6-2.4,1.1-3.5C5.4,5.9,6,4.8,6.7,3.8c0.7-1.1,1.5-2.1,2.5-3L9.9,0
	l1.5,1.5l-0.7,0.7c-6.6,6.7-6.6,17.5,0,24.1l0.7,0.7l-1.5,1.5L9.1,27.8z M41.5,27.1l0.7-0.7c6.6-6.7,6.6-17.5,0-24.1l-0.7-0.7L43,0
	l0.7,0.7c0.9,0.9,1.7,1.9,2.5,3c0.7,1,1.3,2.2,1.8,3.3c0.5,1.1,0.8,2.3,1.1,3.5c0.2,1.2,0.4,2.4,0.4,3.7c0,1.2-0.1,2.5-0.4,3.7
	c-0.2,1.2-0.6,2.4-1.1,3.5c-0.5,1.2-1.1,2.3-1.8,3.3c-0.7,1.1-1.5,2.1-2.5,3L43,28.6L41.5,27.1z M15.6,22.7c-1.1-1.1-2-2.5-2.6-3.9
	c-0.3-0.7-0.5-1.5-0.7-2.2c-0.1-0.7-0.2-1.5-0.2-2.3c0-0.8,0.1-1.5,0.2-2.3c0.1-0.8,0.4-1.5,0.7-2.2c0.6-1.5,1.5-2.8,2.6-3.9L16,5.5
	L17.4,7l-0.3,0.3c-3.8,3.8-3.8,10.1,0,13.9l0.7,0.7l-1.5,1.5L15.6,22.7z M35.4,21.6l0.3-0.3c3.8-3.8,3.8-10.1,0-13.9L35,6.6l1.5-1.5
	l0.7,0.7c1.1,1.1,2,2.5,2.6,3.9c0.3,0.7,0.5,1.5,0.7,2.2c0.1,0.7,0.2,1.5,0.2,2.3c0,0.8-0.1,1.5-0.2,2.3c-0.1,0.8-0.4,1.5-0.7,2.2
	c-0.6,1.5-1.5,2.8-2.6,3.9L36.9,23L35.4,21.6z"/>
</svg> 