<?xml version="1.0" standalone="no"?>
<!DOCTYPE svg PUBLIC "-//W3C//DTD SVG 20010904//EN"
 "http://www.w3.org/TR/2001/REC-SVG-20010904/DTD/svg10.dtd">
<svg version="1.0" xmlns="http://www.w3.org/2000/svg"
 width="260.000000pt" height="260.000000pt" viewBox="0 0 260.000000 260.000000"
 preserveAspectRatio="xMidYMid meet">
<metadata>
Created by potrace 1.11, written by Peter Selinger 2001-2013
</metadata>
<g transform="translate(0.000000,260.000000) scale(0.100000,-0.100000)"
fill="#000000" stroke="none">
<path d="M374 2467 c-149 -159 -234 -374 -220 -562 7 -99 11 -122 41 -211 20
-60 85 -188 104 -204 3 -3 28 -31 54 -62 27 -32 54 -58 61 -58 7 0 24 13 39
28 l27 28 -26 25 c-40 36 -111 140 -139 200 -115 253 -63 559 130 763 l37 39
-31 29 c-16 15 -31 28 -33 28 -2 0 -22 -19 -44 -43z"/>
<path d="M1716 2479 c-29 -32 -28 -35 11 -77 119 -126 184 -293 184 -467 -1
-181 -67 -345 -195 -482 l-30 -33 29 -30 29 -30 48 50 c240 255 285 616 112
910 -33 56 -141 190 -154 190 -4 0 -19 -14 -34 -31z"/>
<path d="M1452 2277 c-12 -13 -22 -27 -22 -31 0 -5 16 -26 35 -47 90 -100 123
-245 86 -378 -13 -44 -63 -131 -94 -162 -14 -15 -13 -19 15 -45 l30 -29 38 43
c47 53 95 150 108 219 9 50 8 156 -2 198 -15 68 -63 158 -117 219 -36 42 -48
44 -77 13z"/>
<path d="M621 2245 c-77 -84 -122 -218 -114 -341 7 -108 62 -230 135 -301 l34
-33 31 29 32 29 -36 38 c-139 152 -144 379 -11 529 l31 36 -30 30 -29 30 -43
-46z"/>
<path d="M1040 1897 c-13 -23 -152 -267 -308 -542 -157 -275 -296 -520 -310
-545 -26 -46 -233 -410 -304 -535 -23 -38 -54 -94 -70 -122 l-29 -53 1281 0
c705 0 1279 3 1277 8 -31 53 -457 743 -464 752 -4 4 -44 -37 -175 -182 -36
-40 -79 -87 -94 -103 -16 -17 -67 -72 -113 -123 -46 -51 -87 -92 -90 -92 -3 0
-12 9 -19 21 -14 22 -28 4 156 198 l80 85 -18 25 c-10 14 -188 301 -395 636
-208 336 -378 611 -379 612 -2 2 -13 -16 -26 -40z m195 -412 c81 -137 156
-265 167 -284 11 -19 35 -59 54 -88 37 -58 45 -89 15 -57 -10 10 -33 32 -52
48 -19 16 -67 59 -107 94 -40 36 -75 63 -77 60 -3 -2 -7 -67 -11 -144 -3 -76
-7 -140 -8 -141 -1 -1 -42 76 -91 172 -68 131 -92 171 -100 161 -5 -8 -30 -86
-55 -174 -24 -88 -47 -159 -49 -156 -3 2 -6 15 -8 27 -6 44 -44 251 -46 253
-1 1 -31 -17 -67 -41 -35 -25 -66 -43 -67 -41 -2 2 72 134 164 294 124 214
171 287 179 279 6 -7 78 -124 159 -262z"/>
</g>
</svg>
